<svg height='100px' width='100px'  fill="#FFFFFF" xmlns="http://www.w3.org/2000/svg" xmlns:xlink="http://www.w3.org/1999/xlink" version="1.1" x="0px" y="0px" viewBox="0 0 566.9 566.9" style="enable-background:new 0 0 566.9 566.9;" xml:space="preserve"><path d="M488.7,154.1l-33-4.7l-37.2-15.7l-1.3,0.1l-67.1,40.8l-97.8,36.2l11.2,3l-97.7,38.1l17,0.6l-25.1,11.5l-28.6-11.4l10.4,18.9  l-60.2-7.1l32.8,13l-51.4,19.2l77.7-9.6l0,0l0,0L294.1,338l11.6,48.7l0,0.2l10,14.7l7.8,28.8v-20.2l16.6,23.1l-12.6-30.7l-12.7-30.1  l15-45.7l30.8-26.8l0.1-0.1l91.2-124l54-7.9L488.7,154.1z M456.2,151.5l27.7,4l-32.6,10.4L456.2,151.5z M454.3,150.9l-5,14.6  l-27.1-28.1L454.3,150.9z M418.2,136.2l29.9,31l-74.7,50.3L418.2,136.2z M415.3,137.3l-44.7,81.1l-18.7-42.5L415.3,137.3z   M259,210.5l91.1-33.7l18.9,42.7l-102-6.9L259,210.5z M175.6,250.3l90.6-35.4l8.8,27.1l-87.9,8.7L175.6,250.3z M268.5,215.4l88.6,36  l-72.5,13.3L268.5,215.4z M187.4,252.7l88.2-8.7l6.8,21l-81.9,11.5l-1.8-0.1L160.7,265L187.4,252.7z M133.7,256.6l24.2,9.7l0,0  l31.3,9.3l-47.2-3.7L133.7,256.6z M77.5,292.6l37.6-14.1l19.4,7L77.5,292.6z M115.5,276.6l-21-8.3l48.8,5.8l0-0.1l48.2,3.8  l-52.6,7.3L115.5,276.6z M143.2,286.5l57.5-8l0,0l65.9-9.3l-98.3,25.5L143.2,286.5z M171.7,295.8L284,266.8l1.2-0.2l0,0l71-13  L254.6,323L171.7,295.8z M295.8,336.5L257,323.8L357.5,255l-50.1,86.2L295.8,336.5L295.8,336.5z M296.4,338.9l10.6,4.3l5.7,29  l-5.6,11.3L296.4,338.9z M325.7,403.2l6.1,15l-8.4-11.7l-5.5-21.6L325.7,403.2z M321.5,407.1v8.2l-3.9-14.6l-9.7-14.3l5.6-11.1  L321.5,407.1z M314,368.5l-5-25.5l18-14L314,368.5z M359,298.7l-30.7,26.6l-17,13.2l48.2-83.1L359,298.7z M360,250.4L273,215  l95.9,6.5L360,250.4z M361.6,252.5l0.2-1.4l6.2-19.4l-6.8,51L361.6,252.5z M361.5,295.4l10-74.2L449,169l1.3,5.8L361.5,295.4z   M450.8,168l37.3-11.9l13,10.5l-49,7.2L450.8,168z"></path></svg>